<?xml version="1.0" encoding="UTF-8"?>
<svg id="Camada_2" data-name="Camada 2" xmlns="http://www.w3.org/2000/svg" viewBox="0 0 1920 600">
  <defs>
    <style>
      .cls-1 {
        fill: #2e3552;
      }

      .cls-1, .cls-2, .cls-3, .cls-4, .cls-5, .cls-6, .cls-7, .cls-8, .cls-9, .cls-10, .cls-11, .cls-12, .cls-13, .cls-14, .cls-15, .cls-16, .cls-17, .cls-18, .cls-19, .cls-20, .cls-21, .cls-22, .cls-23, .cls-24, .cls-25, .cls-26, .cls-27, .cls-28, .cls-29, .cls-30 {
        stroke-width: 0px;
      }

      .cls-2 {
        fill: #b5453c;
      }

      .cls-3 {
        fill: #568cdb;
      }

      .cls-4 {
        fill: #afcdfb;
      }

      .cls-5 {
        fill: #00a99d;
      }

      .cls-6 {
        fill: #9ec3f6;
      }

      .cls-7 {
        fill: #bed7fb;
      }

      .cls-8 {
        fill: #ebf3ff;
      }

      .cls-9 {
        opacity: .4;
      }

      .cls-9, .cls-26 {
        fill: #d86713;
      }

      .cls-10 {
        fill: #dfebfd;
      }

      .cls-11 {
        fill: #548ee2;
      }

      .cls-12 {
        fill: #cde0fb;
      }

      .cls-13 {
        fill: #e9f3fe;
      }

      .cls-14, .cls-31 {
        fill: #fff;
      }

      .cls-15 {
        fill: #fcecdb;
      }

      .cls-16 {
        fill: #ebf3fa;
      }

      .cls-17 {
        fill: #233862;
      }

      .cls-18 {
        fill: #e2915a;
      }

      .cls-19 {
        fill: #ffb27d;
      }

      .cls-20 {
        fill: #f1a34f;
      }

      .cls-21 {
        fill: #c65447;
      }

      .cls-22 {
        fill: #2b478b;
      }

      .cls-23 {
        fill: #f99746;
      }

      .cls-24 {
        fill: #699dee;
      }

      .cls-31 {
        font-family: Bauhaus93, 'Bauhaus 93';
        font-size: 72.23px;
      }

      .cls-25 {
        fill: #ee9849;
      }

      .cls-27 {
        fill: #ed975d;
      }

      .cls-28 {
        fill: #adcbf9;
      }

      .cls-29 {
        fill: #f4d2b8;
      }

      .cls-30 {
        fill: #ed7d2b;
      }
    </style>
  </defs>
  <g id="Camada_3" data-name="Camada 3">
    <rect class="cls-5" width="1920" height="600"/>
    <g>
      <path class="cls-16" d="m279.91,504.45s-91.68-98.43-15.5-205c67.59-94.55,146.39-88.09,204.2-49.72,24.62,16.34,95.62,2.01,156.04-94.2,82.4-131.21,368.03-51.63,315.95,150.24-25.2,97.69,76.7,101.24,24.78,198.89l-685.47-.21Z"/>
      <g>
        <rect class="cls-10" x="307.32" y="389.32" width="88.18" height="88.18" transform="translate(-200.66 352.48) rotate(-42.63)"/>
        <rect class="cls-7" x="283.47" y="398.62" width="88.18" height="17.76" transform="translate(-189.42 329.49) rotate(-42.63)"/>
      </g>
      <g>
        <polygon class="cls-6" points="543.47 115.52 587.96 121.87 558.44 101.75 556.94 108.2 546.12 110.16 543.47 115.52"/>
        <polygon class="cls-12" points="587.96 121.87 550.94 102.78 514.65 100.96 587.96 121.87"/>
        <polygon class="cls-12" points="558.44 101.75 587.96 121.87 565.11 90.42 558.44 101.75"/>
      </g>
      <g>
        <path class="cls-14" d="m792.25,203.29l-11.19,8.03-11.25-7.94c2.49-3.51,6.61-5.83,11.25-5.83s8.7,2.26,11.19,5.74Z"/>
        <path class="cls-14" d="m781.06,177.98c-11.25,0-21.19,5.6-27.22,14.15l7.1,4.99c4.46-6.32,11.83-10.44,20.12-10.44s15.54,4.06,20,10.29l7.07-5.07c-6.06-8.44-15.94-13.92-27.08-13.92Z"/>
        <path class="cls-14" d="m781.06,140.79c-23.8,0-44.85,11.83-57.6,29.92l7.1,4.99c11.19-15.83,29.66-26.21,50.5-26.21s39.02,10.2,50.24,25.83l7.04-5.07c-12.78-17.83-33.69-29.45-57.29-29.45Z"/>
        <path class="cls-14" d="m781.06,161.14c-16.93,0-31.95,8.38-41.08,21.22l7.1,4.99c7.57-10.58,19.97-17.51,33.98-17.51s26.21,6.81,33.8,17.25l7.05-5.04c-9.16-12.67-24.06-20.9-40.85-20.9Z"/>
      </g>
      <path class="cls-28" d="m548.94,252.02l-10.26-.24c3.3,4.27,4.04,8.21,1.98,11.54-2.05,3.4-6.96,6.19-14.3,8.31,5.55-14.77,8.34-30.34,8.34-46.32,0-34.55-13.44-68.38-38.82-93.68-24.56-24.56-57.76-38.82-93.68-38.82-20.17,0-39.66,4.47-57.38,13.02,0,0-.01,0-.02,0-5.7-1.74-11.25-3.16-16.6-4.25-27.03-5.49-46.22-1.69-54.01,10.68-7.42,11.77-3.38,29.48,11.34,50.13,0,0,0,0,0,0-3.29,6.07-6.45,13.28-8.78,20.18-27.65,1.65-42.45,6.51-47.83,15.33-6.26,10.26,2.29,24.03,29.63,37.42,3.77,1.85,7.8,3.67,12.04,5.48,3.28,28.78,16.39,56.69,37.91,78.21,12.18,12.14,26.34,21.7,42.11,28.39,48.33,20.39,105.94,10.84,145.28-28.39,11.84-11.84,21.22-25.63,27.85-40.9,13.49-2.79,22.37-7.16,25.9-12.95,2.46-4,2.15-8.44-.71-13.15Zm-31.65,21.7c-8.98,1.61-20.18,2.56-33.27,2.69-20.3.25-43.62-1.36-68.2-4.59,2.07-4.5,4.09-9.13,6.07-13.86,7.63,2.55,15.03,4.57,22.08,6,8.09,1.64,15.46,2.45,22.05,2.45,15.44,0,26.5-4.46,31.96-13.13.9-1.43,1.63-2.94,2.2-4.54h-7.87c-.13.24-.27.48-.41.71-4.06,6.44-13.12,9.77-25.86,9.77-6.09,0-13.02-.76-20.64-2.31-6.64-1.35-13.6-3.24-20.78-5.62,1.89-4.74,3.74-9.57,5.52-14.48,4.8-13.23,8.9-26.34,12.23-38.93,26.92,3.97,55.05,4.09,82.07,2.05,1.71,8.29,2.57,16.77,2.57,25.39,0,16.78-3.26,33.07-9.72,48.4Zm-163.96,65.69c-3.83-1.39-5.77-6.88-6.73-11.25-1.51-6.9-1.78-16.58-.79-28.01.5-5.78,1.31-11.93,2.4-18.36,15.69,4.18,31.22,9.56,46.35,16.04-3.41,5.88-6.85,11.32-10.3,16.26-6.56,9.41-12.98,16.67-18.56,20.99-3.53,2.74-8.54,5.71-12.37,4.32Zm44.7-47.73c-15.83-6.82-32.11-12.46-48.56-16.82.58-2.98,1.22-6.02,1.91-9.1,4.57,1.04,9.21,2.05,13.9,3.01,13.74,2.81,27.45,5.2,40.86,7.13-2.66,5.5-5.37,10.77-8.12,15.78Zm-29.72-27.88c-5.31-1.09-10.54-2.23-15.68-3.42,2.42-10.07,5.39-20.57,8.87-31.27,18.04,11.09,36.4,20.12,53.77,26.52-2.18,5.2-4.42,10.28-6.71,15.19-13.2-1.89-26.7-4.24-40.25-7.02Zm-44.07-135.95c10.03,20.55,29.36,37.48,50.16,48.71-5.04,10.98-9.84,22.7-14.25,34.87-.82,2.27-1.62,4.53-2.41,6.79-26.36-17.16-48.68-36.85-63.32-55.9,0,0,0,0,0,0,7.73-13.18,17.79-24.82,29.82-34.46Zm112.72-19.01c3.83,1.39,5.77,6.88,6.73,11.25,1.51,6.9,1.78,16.58.79,28.01-1.09,12.51-3.59,26.72-7.32,41.85-18.33-3.15-36.65-8.35-53.52-16.54,7.19-14.99,14.79-28.36,22.39-39.26,6.56-9.41,12.98-16.67,18.56-20.99,2.91-2.26,6.83-4.67,10.26-4.67.73,0,1.44.11,2.11.35Zm-1.55,87.93c-3.24,12.18-7.22,24.86-11.87,37.66-1.79,4.94-3.64,9.79-5.55,14.56-17.44-6.4-35.96-15.56-54.16-26.88.94-2.75,1.91-5.51,2.91-8.27,4.31-11.9,9-23.34,13.91-34.07,17.18,8.33,35.79,13.7,54.76,17.01Zm55.04-59.7c16.19,16.19,26.92,35.63,32.36,55.96-28.77,2.1-55.13,1.44-78.7-1.97,3.74-15.28,6.26-29.65,7.36-42.35,1.22-14.02,1.07-30.62-4.61-39.97,16.47,6.33,31.18,15.87,43.59,28.33Zm-88.23-36.56c8.65,0,17.15.87,25.46,2.6-9.8,4.27-19.81,16.15-27.41,27.04-7.78,11.15-15.54,24.79-22.88,40.06-19.79-10.76-38.49-27.24-47.43-46.67,20.87-14.84,45.96-23.03,72.26-23.03Zm-121.93,15.62c4.06-6.44,13.13-9.77,25.86-9.77,6.09,0,13.02.76,20.64,2.31,2.89.59,5.85,1.27,8.85,2.07,0,0,0,0,0,0-18.18,10.51-34.19,25.73-46.11,44.8,0,0,0,0,0,.01-11.25-16.7-14.63-30.87-9.24-39.42Zm10.39,53.1h0c15.42,19.26,38.14,38.96,64.69,56.05-3.76,11.46-6.98,22.72-9.57,33.51-22.01-5.33-47.6-12.86-67.8-21.41-1.68-16.76.15-33.72,5.18-49.72,1.95-6.2,4.54-12.6,7.5-18.43Zm-26,62.16c-23.85-11.64-34.75-22.87-29.87-30.85,3.94-6.46,18.26-10.83,40.2-12.45-4.42,14.92-5.96,30.44-5.05,45.78-1.82-.81-3.57-1.65-5.28-2.49Zm79.87,32.8c-.68,3.03-1.31,6.02-1.88,8.97-1.53-.37-3.06-.73-4.59-1.08-25.89-5.89-45.32-7.09-54.32-7.29-2.23-6.72-3.87-13.59-4.91-20.61,17.64,6.78,37.49,13.29,65.71,20.02Zm-58.19,7.71c9.6.39,27.41,1.84,50.16,7.02,1.63.37,3.25.76,4.88,1.15-1.17,6.83-2.03,13.35-2.57,19.48-1.01,11.62-1.08,25.01,2.16,34.58-9.86-5.55-18.91-12.42-27.03-20.54-12.1-12.1-21.41-26.27-27.6-41.7Zm78.01,72.42c9.23-4.84,18.51-15.95,25.65-26.19,3.68-5.28,7.37-11.13,11-17.44,20.96,9.49,41.11,21.15,60.05,34.74-31.21,16.68-66.35,18.56-96.7,8.89Zm126.08-30.72c-6.9,6.92-14.5,12.93-22.7,17.99-19.89-14.54-41.14-26.98-63.27-37.05,3.04-5.58,6.04-11.47,8.97-17.62,20.26,2.69,39.74,4.3,57.53,4.71,4.64.13,9.15.13,13.52.1,11.34-.13,21.43-.81,30.07-2.02-6.05,12.55-14.16,23.92-24.12,33.87Z"/>
      <g>
        <g>
          <path class="cls-26" d="m487.62,272.7l-18.32,217.86s-1.92,13.21,7.9,13.23c16.15.04,80.39,0,80.39,0,0,0-12.16-2.75-12.01-8.93.17-7.29,21.42-224.22,21.42-224.22l-79.38,2.06Z"/>
          <path class="cls-23" d="m562.8,499.84c-3.18,0-64.53.2-80.26,0-6.86-.09-8.06-6.09-8.11-9.98-.03-1.86.21-3.24.21-3.24l.48-5.66,1.21-14.43,1.07-12.75,1.38-16.39,1.16-13.83,13.02-154.81,79.38-2.06s-8.95,90.78-15.27,156.87c-.71,7.36-1.38,14.42-2,21.01-.2,2.1-.39,4.16-.58,6.16-.59,6.25-1.12,11.99-1.59,17.06-.25,2.67-.47,5.15-.68,7.43-.81,8.91-1.28,14.6-1.29,15.68,0,.63.05,1.22.15,1.76,1.3,6.94,10.53,7.17,11.73,7.17Z"/>
          <polygon class="cls-23" points="294.84 154.14 339.47 333.42 345.58 357.97 366.37 441.47 752.56 441.47 675.94 154.14 294.84 154.14"/>
          <polygon class="cls-25" points="294.84 154.14 288.65 156.2 358.15 447.71 366.37 441.47 294.84 154.14"/>
          <polygon class="cls-26" points="358.15 447.71 741.96 447.71 752.56 441.47 366.37 441.47 358.15 447.71"/>
          <rect class="cls-20" x="492.93" y="499.92" width="83.1" height="3.95" transform="translate(1068.96 1003.8) rotate(180)"/>
          <polygon class="cls-20" points="733.85 388.53 671.19 157.94 294.22 157.94 294.22 154.14 675.94 154.14 738.4 388.01 733.85 388.53"/>
          <polygon class="cls-26" points="554.91 447.71 554.48 450.73 476.32 466.52 477.4 453.76 477.91 447.71 554.91 447.71"/>
          <path class="cls-9" d="m562.8,499.84c-3.18,0-64.53.2-80.26,0-6.86-.09-8.06-6.09-8.11-9.98l77.78-14.63c-.81,8.91-1.28,14.6-1.29,15.68,0,.63.05,1.22.15,1.76,1.3,6.94,10.53,7.17,11.73,7.17Z"/>
          <polygon class="cls-9" points="536.02 383.31 366.37 441.47 345.58 357.97 536.02 383.31"/>
          <polygon class="cls-24" points="294.84 154.14 675.94 154.14 737.78 385.06 350.36 385.06 294.84 154.14"/>
        </g>
        <path class="cls-26" d="m569.7,414.26c-1.1-5.66-6.58-10.25-12.25-10.25s-9.36,4.59-8.26,10.25,6.58,10.25,12.25,10.25,9.36-4.59,8.26-10.25Z"/>
        <polygon class="cls-13" points="719.81 375.06 362.98 375.06 322.56 214.08 319.47 201.73 316.82 191.2 314.71 182.77 310.63 166.51 662.31 166.51 662.56 167.41 666.79 182.77 669.12 191.2 672.02 201.73 675.42 214.08 719.81 375.06"/>
        <polygon class="cls-13" points="719.81 375.61 362.98 375.61 322.56 214.63 319.47 202.28 316.82 191.75 314.71 183.32 310.63 167.06 662.31 167.06 662.56 167.96 666.79 183.32 669.12 191.75 672.02 202.28 675.42 214.63 719.81 375.61"/>
        <polygon class="cls-4" points="666.79 182.77 314.71 182.77 310.63 166.51 662.18 166.51 662.56 167.41 666.79 182.77"/>
        <g>
          <path class="cls-13" d="m320.41,174.64c-.42-1.7.61-3.09,2.32-3.09s3.43,1.38,3.86,3.09c.42,1.7-.61,3.09-2.32,3.09s-3.43-1.38-3.86-3.09Z"/>
          <path class="cls-13" d="m330.66,174.64c-.43-1.7.61-3.09,2.32-3.09s3.43,1.38,3.86,3.09c.43,1.7-.61,3.09-2.32,3.09s-3.43-1.38-3.86-3.09Z"/>
          <path class="cls-13" d="m341.71,174.64c-.42-1.7.61-3.09,2.32-3.09s3.43,1.38,3.86,3.09c.43,1.7-.61,3.09-2.32,3.09s-3.43-1.38-3.86-3.09Z"/>
        </g>
        <g>
          <path class="cls-22" d="m474.13,375.61h-35.28c-.34-2.76-.64-5.67-.9-8.71-.47-5.45-.84-11.32-1.1-17.42-.06-1.41-.12-2.83-.17-4.26-.07-1.82-.13-3.66-.18-5.51-.09-3.14-.15-6.32-.2-9.52,0,0,0,0,0-.01-.06-4.08-.09-8.18-.1-12.27h0c0-1.02,0-2.04,0-3.06h0c0-.96,0-1.92,0-2.87.03-8.8.16-17.44.35-25.46.41-17.76,1.06-32.56,1.41-39.68h0c.14-2.92.23-4.55.23-4.55,0,0,0,0,0,0,.08.01.61.11,1.46.31.62.15,1.4.36,2.29.63h0c.81.24,1.69.54,2.63.9,0,0,0,0,0,0,1.59.61,3.3,1.39,4.91,2.37.02.01.05.02.07.04,2.63,1.64,5.01,3.8,6.1,6.67.93,2.43,3.11,15.5,5.75,32.86.07.5.15.99.22,1.5,1.39,9.22,2.9,19.56,4.41,30.12,1.6,11.19,3.2,22.62,4.68,33.21,1.26,9.09,2.42,17.55,3.4,24.71Z"/>
          <path class="cls-17" d="m464.25,375.61h-41.07c-.79-3.39-1.53-6.66-2.18-9.72-1.8-8.45-2.99-15.37-2.93-19.09.03-1.74.69-3.11,1.82-4.16.77-.72,1.77-1.29,2.94-1.74,3.46-1.32,8.44-1.53,13.65-1.2,1.77.11,3.57.28,5.34.5,9.76,1.18,18.82,3.6,18.82,3.6,0,0,.61,2.45,1.32,6.73.54,3.21,1.14,7.46,1.58,12.48.26,2.91.47,6.09.58,9.48.03,1.02.07,2.06.11,3.12Z"/>
          <path class="cls-21" d="m445.28,346.84l-.41,2.97-1.99,14.41-.34,2.46-1.23,8.93h-42.8c-.33-5.9-.64-11.66-.7-16.67,0-.56,0-1.1,0-1.64,0-7.55.66-13.15,2.83-14.56,2.45-1.6,10.59-1.16,19.26-.1.86.1,1.73.22,2.6.34,5.05.68,10.11,1.52,14.17,2.24,2.11.38,3.95.72,5.38.99,2.02.39,3.23.64,3.23.64Z"/>
          <path class="cls-14" d="m397.81,249.71s23.51-15.2,40.38-7.43c2.69,1.24,5.75,4.7,7.95,7.12,6.1,6.72,18.01,113.42,18.01,113.42,0,0-33.81,11.45-66.33-3.89v-109.22Z"/>
          <path class="cls-22" d="m439.52,241.9s23.8,9.76,27.03,17.25c3.22,7.5,13.7,53.53,13.7,58.92s-18.24,1.21-21.18-7.5c-2.44-7.23-10.67-29.44-15-43.48l-4.54-25.19Z"/>
          <g>
            <path class="cls-19" d="m434.58,249.33c-5.2,1.02-12.83-.07-18.42-3.75,2.52-6.03,3.56-10.79,3.93-13.86.02-.16.04-.32.05-.48.17-1.6.14-2.68.06-3.18h13.43s3.67,1.68,3.67,2.84c0,.62,0,1.21.02,1.78.03,1.54.09,2.89.17,4.05.26,3.77.69,5.55.69,5.55,0,0,1.64,6.02-3.61,7.05Z"/>
            <path class="cls-18" d="m437.5,236.74c-10.18,1.97-16.09-3.6-17.41-5.02-.19-.2-.28-.33-.28-.33.11-.05.22-.1.34-.15,3.79-1.53,12.39-.31,17.19,1.45.03,1.54.09,2.89.17,4.05Z"/>
            <path class="cls-19" d="m416.76,225.86c1.82,9.79,14.45,9.47,19.91,8.85,1.54-.17,2.5-.37,2.5-.37,1.73-.46,2.7-3.19,3.15-6.76.89-7.07-.23-17.45-1.43-20.11-1.8-4-5.18-8.32-17.9-5.2-12.72,3.12-8.56,11.04-6.22,23.59Z"/>
            <path class="cls-17" d="m441.36,202.01c-1.74-2.41-5.42-5.35-8.77-7.16-7.19-3.89-16.4.12-16.44.14-10.39,4.57-13.1,12.52-7.59,24.9,5.82,13.09,11.37,11.62,11.37,11.62,0,0-1.18-.73-1.07-4.81,0-.23.02-.43.03-.59.05-.84-.24-1.67-.87-2.23-1.29-1.15-1.92-4.64-.84-5.6,1.3-1.17,3.14.25,3.72,1.34.51.77,1.43,1.04,2.28.5,3.23-2.04,1.13-6.13,4.22-8.63,3.09-2.5,9.36-.4,14-2.39,6.07-2.26,1.27-5.26-.04-7.07Z"/>
          </g>
          <path class="cls-22" d="m443.03,375.61h-51.2c.37-10.62.84-23.29,1.33-36.13.13-3.33.26-6.67.39-9.98.06-1.4.11-2.8.17-4.2,1.13-28.5,2.25-54.24,2.49-55.62.54-3.14,1.05-5.81,1.6-8.13,1.61-6.75,3.61-10.45,7.97-13.64.42-.32,3.91-2.08,6.98-3.61,2.51-1.25,4.74-2.33,4.81-2.36h0s0,0,0,0c.51.25,1.07.95,1.66,2,.59,1.05,1.21,2.44,1.85,4.07,2.34,6.01,4.87,15.21,6.62,22.08,0,0,0,.02,0,.02,0,0,0,0,0,.01h0c1.13,4.44,1.94,7.89,2.17,8.89.39,1.67.91,4.91,1.52,9.29h0c.83,5.99,1.81,14.11,2.86,23.31h0c.11.95.22,1.91.32,2.87.12,1.1.25,2.22.38,3.35h0c.04.37.08.73.12,1.09h0c.4,3.65.81,7.41,1.21,11.24,0,0,0,0,0,.01.34,3.15,5.13,5.44,5.46,8.65.02.23.05.71.08,1.36.06,1.36.14,3.51.22,6.01.04,1.11.08,2.29.12,3.49.19,5.34.42,11.2.68,14.01.01.13.02.3.03.51.03.56.06,1.39.08,2.43.04,2.21.06,5.37.07,8.96Z"/>
          <path class="cls-17" d="m408.11,281.17c-.02.07-.82,28.82,20.81,32.31,21.63,3.49,7.26,4.42,7.26,4.42,0,0-40.7-1.73-41.37-2.8-.67-1.07,13.3-33.92,13.3-33.92Z"/>
          <path class="cls-17" d="m426.38,325.82s-.41.29-1.18.79c-.01,0-.03.02-.04.02-3.3,2.11-13.09,7.85-27.35,11.7-1.5.41-3.04.79-4.64,1.14.13-3.33.26-6.67.39-9.98-1.88-.15-3.69-.39-5.36-.74.06-.44.12-.88.17-1.31,1.81-.74,3.62-1.46,5.36-2.14,1.42-.55,2.79-1.08,4.08-1.57,5.86-2.22,10.2-3.73,10.2-3.73l17.34,5.49,1.04.33Z"/>
          <path class="cls-22" d="m430.97,325.34s-2.23.56-5.77,1.27c-.01,0-.02,0-.04,0-6.54,1.31-17.53,3.16-27.36,3.06-1.45-.02-2.87-.07-4.25-.18-1.88-.15-3.69-.39-5.36-.74-3.59-.76-6.6-2.04-8.56-4.04-14.61-14.88,7.97-68.28,12.72-73.48,5.54-6.07,15.66-8.2,21.25-8.93.23-.03.46-.06.67-.09,1.96-.23,3.22-.28,3.29-.28h0s-.44,1.41-1.17,3.8c-.28.92-.62,2-.98,3.19-3.43,11.24-10.05,33.32-12.97,45.77-1.07,4.56-1.64,7.82-1.38,8.8,1.14,4.25,12.94,6.44,20.42,7.41,3.12.4,5.49.59,6.02.63.04,0,.07,0,.11,0l.43,1.77,1.03,4.25,1.02,4.18.87,3.59Z"/>
          <polygon class="cls-23" points="471.72 350.94 421.55 348.83 431.72 286.3 481.9 288.42 471.72 350.94"/>
          <path class="cls-19" d="m427.61,311.55s9.77-.68,10.26,1.6c1.14,5.31-8.4,9.66-11.49,9.37-3.09-.3-1.02-11.32,1.23-10.96Z"/>
          <path class="cls-19" d="m479.15,301.11s-9.34-2.92-10.35-.82c-2.34,4.9,5.93,11.34,9.01,11.77,3.08.42,3.61-10.77,1.34-10.95Z"/>
          <path class="cls-17" d="m418.58,238.8s-4.11,1.96-6.17,4.91c0,0,15.36,26.67,15.29,26.42-.07-.25-5.19-27.91-9.12-31.33Z"/>
          <path class="cls-17" d="m437.71,239.17c1.35.51,3.95,3.17,4.53,4.64l1.83,23.28s-3.9-17.08-5.88-24.81c-.5-1.96-.41-2.56-.48-3.11Z"/>
          <path class="cls-21" d="m448.36,287s.4-1.73,2.68-1.53c2.28.2,15.11.83,15.11.83,0,0,2.47-.04,2.24,1.54l-20.04-.84Z"/>
          <path class="cls-14" d="m433.64,228.06s1.67,1.52,4.35,1.05c1.59-.28,2.49-2.35,2.49-2.35,0,0-3.06-.55-6.84,1.3Z"/>
        </g>
        <g>
          <g>
            <polygon class="cls-14" points="671.38 247.52 634.32 247.66 622.3 201.65 659.36 201.51 671.38 247.52"/>
            <g>
              <polygon class="cls-28" points="650.17 207.56 634.63 207.62 634.45 206.93 649.99 206.88 650.17 207.56"/>
              <polygon class="cls-28" points="652.65 209.45 633.14 209.52 632.96 208.84 652.47 208.77 652.65 209.45"/>
              <g>
                <polygon class="cls-28" points="658.01 218.81 632.67 218.91 632.49 218.23 657.84 218.13 658.01 218.81"/>
                <polygon class="cls-28" points="658.6 221.06 633.26 221.15 633.08 220.47 658.42 220.38 658.6 221.06"/>
                <polygon class="cls-28" points="659.19 223.3 633.84 223.39 633.67 222.71 659.01 222.62 659.19 223.3"/>
                <polygon class="cls-28" points="659.77 225.54 634.43 225.64 634.25 224.96 659.59 224.86 659.77 225.54"/>
                <polygon class="cls-28" points="660.36 227.79 635.02 227.88 634.84 227.2 660.18 227.11 660.36 227.79"/>
              </g>
              <g>
                <polygon class="cls-28" points="661.78 233.25 636.44 233.34 636.26 232.66 661.61 232.56 661.78 233.25"/>
                <polygon class="cls-28" points="662.37 235.49 637.03 235.58 636.85 234.9 662.19 234.81 662.37 235.49"/>
                <polygon class="cls-28" points="662.96 237.73 637.61 237.83 637.44 237.14 662.78 237.05 662.96 237.73"/>
                <polygon class="cls-28" points="663.54 239.98 638.2 240.07 638.02 239.39 663.36 239.29 663.54 239.98"/>
                <polygon class="cls-28" points="664.13 242.22 638.79 242.31 638.61 241.63 663.95 241.54 664.13 242.22"/>
              </g>
            </g>
          </g>
          <g>
            <polygon class="cls-14" points="686.31 304.69 649.25 304.83 637.23 258.82 674.29 258.68 686.31 304.69"/>
            <g>
              <polygon class="cls-28" points="665.1 264.73 649.56 264.79 649.38 264.11 664.92 264.05 665.1 264.73"/>
              <polygon class="cls-28" points="667.58 266.62 648.07 266.69 647.89 266.01 667.4 265.94 667.58 266.62"/>
              <g>
                <polygon class="cls-28" points="672.95 275.98 647.61 276.08 647.43 275.4 672.77 275.3 672.95 275.98"/>
                <polygon class="cls-28" points="673.53 278.23 648.19 278.32 648.01 277.64 673.36 277.55 673.53 278.23"/>
                <polygon class="cls-28" points="674.12 280.47 648.78 280.57 648.6 279.88 673.94 279.79 674.12 280.47"/>
                <polygon class="cls-28" points="674.7 282.72 649.36 282.81 649.19 282.13 674.53 282.03 674.7 282.72"/>
                <polygon class="cls-28" points="675.29 284.96 649.95 285.05 649.77 284.37 675.11 284.28 675.29 284.96"/>
              </g>
              <g>
                <polygon class="cls-28" points="676.72 290.42 651.38 290.51 651.2 289.83 676.54 289.74 676.72 290.42"/>
                <polygon class="cls-28" points="677.3 292.66 651.96 292.75 651.78 292.07 677.12 291.98 677.3 292.66"/>
                <polygon class="cls-28" points="677.89 294.9 652.55 295 652.37 294.32 677.71 294.22 677.89 294.9"/>
                <polygon class="cls-28" points="678.47 297.15 653.13 297.24 652.96 296.56 678.3 296.47 678.47 297.15"/>
                <polygon class="cls-28" points="679.06 299.39 653.72 299.48 653.54 298.8 678.88 298.71 679.06 299.39"/>
              </g>
            </g>
          </g>
          <g>
            <polygon class="cls-14" points="701.35 362.25 664.28 362.39 652.27 316.38 689.33 316.24 701.35 362.25"/>
            <g>
              <polygon class="cls-28" points="680.14 322.29 664.6 322.34 664.42 321.66 679.96 321.61 680.14 322.29"/>
              <polygon class="cls-28" points="682.62 324.18 663.11 324.25 662.93 323.57 682.44 323.5 682.62 324.18"/>
              <g>
                <polygon class="cls-28" points="687.98 333.54 662.64 333.64 662.46 332.95 687.8 332.86 687.98 333.54"/>
                <polygon class="cls-28" points="688.57 335.78 663.23 335.88 663.05 335.2 688.39 335.1 688.57 335.78"/>
                <polygon class="cls-28" points="689.15 338.03 663.81 338.12 663.63 337.44 688.98 337.35 689.15 338.03"/>
                <polygon class="cls-28" points="689.74 340.27 664.4 340.37 664.22 339.68 689.56 339.59 689.74 340.27"/>
                <polygon class="cls-28" points="690.32 342.51 664.98 342.61 664.81 341.93 690.15 341.83 690.32 342.51"/>
              </g>
              <g>
                <polygon class="cls-28" points="691.75 347.97 666.41 348.07 666.23 347.39 691.57 347.29 691.75 347.97"/>
                <polygon class="cls-28" points="692.34 350.22 667 350.31 666.82 349.63 692.16 349.54 692.34 350.22"/>
                <polygon class="cls-28" points="692.92 352.46 667.58 352.55 667.4 351.87 692.74 351.78 692.92 352.46"/>
                <polygon class="cls-28" points="693.51 354.7 668.17 354.8 667.99 354.12 693.33 354.02 693.51 354.7"/>
                <polygon class="cls-28" points="694.09 356.95 668.75 357.04 668.58 356.36 693.92 356.27 694.09 356.95"/>
              </g>
            </g>
          </g>
          <g>
            <g>
              <polygon class="cls-14" points="652.62 362.64 523 363.12 485.69 220.3 502.58 202.12 610.58 201.72 652.62 362.64"/>
              <polygon class="cls-28" points="574.88 225.85 529.19 226.02 528.67 224.02 574.35 223.85 574.88 225.85"/>
              <polygon class="cls-28" points="582.17 231.41 524.82 231.62 524.29 229.62 581.65 229.41 582.17 231.41"/>
              <g>
                <polygon class="cls-28" points="597.94 258.94 523.44 259.21 522.92 257.21 597.42 256.94 597.94 258.94"/>
                <polygon class="cls-28" points="599.66 265.53 525.17 265.81 524.64 263.81 599.14 263.53 599.66 265.53"/>
                <polygon class="cls-28" points="601.39 272.13 526.89 272.4 526.37 270.4 600.86 270.13 601.39 272.13"/>
                <polygon class="cls-28" points="603.11 278.72 528.61 279 528.09 277 602.59 276.72 603.11 278.72"/>
                <polygon class="cls-28" points="604.83 285.32 530.33 285.59 529.81 283.59 604.31 283.32 604.83 285.32"/>
              </g>
              <g>
                <polygon class="cls-28" points="609.02 301.37 534.53 301.64 534 299.64 608.5 299.37 609.02 301.37"/>
                <polygon class="cls-28" points="610.75 307.96 536.25 308.24 535.73 306.24 610.22 305.96 610.75 307.96"/>
                <polygon class="cls-28" points="612.47 314.56 537.97 314.83 537.45 312.83 611.95 312.56 612.47 314.56"/>
                <polygon class="cls-28" points="614.19 321.15 539.69 321.43 539.17 319.43 613.67 319.15 614.19 321.15"/>
                <polygon class="cls-28" points="615.91 327.75 541.42 328.02 540.89 326.02 615.39 325.74 615.91 327.75"/>
              </g>
            </g>
            <polygon class="cls-28" points="485.69 220.3 507.31 220.22 502.58 202.12 485.69 220.3"/>
          </g>
        </g>
      </g>
      <g>
        <g>
          <g>
            <path class="cls-15" d="m692.37,437.38h102.34c10.17,0,18.43,8.26,18.43,18.43h0c0,10.4-8.44,18.84-18.84,18.84h-101.92v-37.27h0Z"/>
            <path class="cls-24" d="m903.2,452.71v5.61c0,3-.81,5.8-2.21,8.21-2.83,4.85-8.09,8.11-14.12,8.11h-197.73c-1.31,0-2.37-1.06-2.37-2.37v-.84c0-1.31,1.06-2.37,2.37-2.37h120.54c.64-.79,1.21-1.64,1.69-2.54,1.13-2.13,1.77-4.55,1.77-7.12v-7.13c0-1.31-.17-2.58-.49-3.79-.54-2.05-1.51-3.93-2.79-5.53h-120.71c-1.31,0-2.37-1.06-2.37-2.37v-.84c0-1.31,1.06-2.37,2.37-2.37h198.73c7,0,12.91,4.69,14.74,11.11.39,1.34.59,2.76.59,4.23Z"/>
            <path class="cls-11" d="m902.61,448.49h-89.97c-.54-2.05-1.51-3.93-2.79-5.53h-120.71c-1.31,0-2.37-1.06-2.37-2.37v-.84c0-1.31,1.06-2.37,2.37-2.37h198.73c7,0,12.91,4.69,14.74,11.11Z"/>
          </g>
          <polygon class="cls-29" points="692.37 456.01 707.01 456.64 692.37 457.02 692.37 456.01"/>
          <polygon class="cls-29" points="692.37 461.86 727.2 462.49 692.37 462.86 692.37 461.86"/>
        </g>
        <g>
          <g>
            <g>
              <path class="cls-22" d="m702.58,474.57h112.33c8.25,0,14.95,6.7,14.95,14.95h0c0,7.75-6.29,14.04-14.04,14.04h-113.24v-28.99h0Z" transform="translate(1532.45 978.13) rotate(180)"/>
              <path class="cls-15" d="m808.82,474.57h127.78c8.09,0,14.66,6.57,14.66,14.66h0c0,7.91-6.42,14.33-14.33,14.33h-128.11v-28.99h0Z" transform="translate(1760.08 978.13) rotate(-180)"/>
              <path class="cls-22" d="m800.28,503.56h155.42c1.2,0,2.17-.97,2.17-2.17h0c0-1.2-.97-2.17-2.17-2.17h-155.42c-1.2,0-2.17.97-2.17,2.17h0c0,1.2.97,2.17,2.17,2.17Z"/>
              <path class="cls-22" d="m800.28,478.9h155.42c1.2,0,2.17-.97,2.17-2.17h0c0-1.2-.97-2.17-2.17-2.17h-155.42c-1.2,0-2.17.97-2.17,2.17h0c0,1.2.97,2.17,2.17,2.17Z"/>
            </g>
            <polygon class="cls-29" points="951.26 489.06 933.99 489.55 951.26 489.84 951.26 489.06"/>
            <polygon class="cls-29" points="951.26 482.39 910.18 482.88 951.26 483.17 951.26 482.39"/>
          </g>
          <g>
            <path class="cls-24" d="m910.6,482.78s1.76,1.25,2.34,3.29c.1.36.17.74.18,1.15.1,2.72,0,8.88,0,8.88l5.2-3.08,5.18,3.08v-8.34c0-1.58-.44-3.11-1.27-4.12-.4-.49-.89-.85-1.44-.85h-10.2Z"/>
            <path class="cls-3" d="m910.6,482.78s1.76,1.25,2.34,3.29l10.42.12s-.41-2.93-2.56-3.41h-10.2Z"/>
          </g>
        </g>
        <g>
          <g>
            <g>
              <path class="cls-15" d="m793.32,394.87h110.26c11.89,0,21.53,9.65,21.53,21.53h0c0,11.62-9.44,21.06-21.06,21.06h-110.73v-42.59h0Z" transform="translate(1718.44 832.32) rotate(180)"/>
              <path class="cls-2" d="m796.02,411.39v9.17c.03,3.91,2.2,7.31,5.38,9.13,1.57.89,3.38,1.4,5.3,1.4h124.64c1.46,0,2.64,1.18,2.64,2.64v1.08c0,1.46-1.18,2.64-2.64,2.64h-215.31c-6.18,0-11.64-3.07-14.94-7.77-2.08-2.96-3.3-6.57-3.3-10.46v-7.23c0-2.67.61-5.2,1.7-7.45,2.77-5.73,8.63-9.68,15.42-9.68h216.43c1.46,0,2.64,1.18,2.64,2.64v1.08c0,1.46-1.18,2.64-2.64,2.64h-125.02c-2.99,0-5.69,1.27-7.58,3.31-1.67,1.8-2.7,4.2-2.72,6.85Z"/>
            </g>
            <polygon class="cls-29" points="925.11 416.16 909.14 416.88 925.11 417.31 925.11 416.16"/>
            <polygon class="cls-29" points="925.11 406.36 887.1 407.08 925.11 407.51 925.11 406.36"/>
          </g>
          <g>
            <path class="cls-23" d="m887.49,406.93s2.51,1.35,3.34,3.57c.15.39.24.8.26,1.24.14,2.95,0,9.62,0,9.62l7.41-3.34,7.39,3.34v-9.05c0-1.71-.63-3.37-1.81-4.46-.57-.53-1.26-.93-2.05-.93h-14.54Z"/>
            <path class="cls-30" d="m887.49,406.93s2.51,1.35,3.34,3.57l14.84.13s-.58-3.18-3.65-3.7h-14.54Z"/>
          </g>
        </g>
      </g>
      <g>
        <path class="cls-17" d="m812.34,379.07c6.57,11.43,14.83,15.85,14.83,15.85h34.37s-54.22-24.57-49.21-15.85Z"/>
        <g>
          <path class="cls-19" d="m838.74,467.54c.9,1.03,1.01,2.17.57,3.4,0,0,0,.01,0,.02-.82,2.27-3.53,4.8-6.67,7.32-.4.32-.76.62-1.07.89-.08.07-.16.14-.24.22-.06.06-.12.11-.19.17-2.93,2.7-1.83,3.32-7.1,8.81-6.01,6.25-10.15,6.37-11.33,5.8-1-.49,1.03-3.8,3.27-7.53.11-.18.22-.36.33-.54.3-.5.6-1,.89-1.5,2.63-4.49,1.95-6.59,1.33-13.27-.51-5.43-8.44-30.31-8.44-30.31l11.52-1.98s3.47,19.82,7.29,22.87c2.04,1.63,4.33,1.65,6.3,2.85.14.08.28.17.41.26,1.12.74,2.25,1.5,3.15,2.53Z"/>
          <path class="cls-17" d="m838.74,467.54c.9,1.03,1.01,2.17.57,3.4,0,0,0,.01,0,.02-1,2.26-3.64,4.78-6.69,7.3-.4.33-.75.63-1.06.92-.08.07-.16.14-.24.22-.06.06-.12.11-.19.17-2.93,2.7-1.83,3.32-7.1,8.81-6.01,6.25-10.15,6.37-11.33,5.8-1-.49,1.03-3.8,3.27-7.53,1.17-.43,6.6-2.64,10.71-7.89,3.62-4.62,6.03-10.55,8.5-13.99.14.08.28.17.41.26,1.12.74,2.25,1.5,3.15,2.53Z"/>
          <path class="cls-19" d="m745.87,460.34c-.71,3.56-5.78,2.96-11.44,1.58-5.66-1.38-4.32.26-12.37-.63-8.06-.89-10.5-3.9-10.74-5.09-.22-1.06,3.76-1.44,8.03-1.93.54-.06,1.08-.13,1.62-.19,4.82-.61,8.35-3.72,12.73-6.27,4.15-2.42,10.34-12.28,10.34-12.28l11.05.88s-5.8,8.81-8.04,12.64c-1.32,2.25-1.25,5.23-1.08,7.53.09,1.25.17,2.53-.08,3.78Z"/>
          <path class="cls-17" d="m734.43,461.92c-5.66-1.38-4.32.26-12.37-.63-8.06-.89-10.5-3.9-10.74-5.09-.22-1.06,3.76-1.44,8.03-1.93l.04.08s4.83,3.43,11.54,3.59c5.47.13,11.26-1.43,15.03-1.37.09,1.25.17,2.53-.08,3.78-.71,3.56-5.78,2.96-11.44,1.58Z"/>
          <path class="cls-17" d="m788.22,389.68l10.33,27.8,13.49,36.3s3.66.35,7.17-.65c3.23-.93,6.93-3.37,6.93-3.37,0,0-3.74-38.97-10.73-61.34-1.79-5.74-3.8-10.39-6.01-13-10.83-12.8-21.17,14.28-21.17,14.28Z"/>
          <path class="cls-22" d="m798.72,345.53c6.77-2.18,26.07.62,45.46,4.42l4.06-6.7,41.88-3.27s13.82,30.65,6.25,50.18c-1.11,2.87-3.32,4.71-7.09,4.77,0,0-.61,0-.61,0,0,0-24.93-.01-33.02-.01-20.83,0-44.08-14.32-47.09-14.92-4.92-.98-6.89,8.86-11.82,19.2-4.92,10.34-46.28,45.79-46.28,45.79,0,0-6.36.06-8.98-.92-2.82-1.06-3.86-2.43-3.86-2.43,0,0,45.83-91.17,61.09-96.1Z"/>
          <path class="cls-17" d="m848.49,285.58c14.91,8.21,45.17,25.24,45.33,25.13,0,0,11.12,4.19,17.43,0,10.52-6.98,16.15-25.78-3.08-41.95-9.59-8.07-16.4-10.03-17.44-22.91-.56-6.99-10.11-30.05-25.98-27.92-1.33.18-9.49.56-14.86,3.38-13.67,7.18-23.76,61.1-1.4,64.28Z"/>
          <path class="cls-19" d="m860.99,278.59c-.07.04,7.34,2.57,12.29.38,4.66-2.06,8.19-9.72,8.12-9.72-2.12-.1-4.44-1.95-6.24-14.1l-.9.32-15.17,5.46s1.1,4.87,1.81,9.5c.6,3.89.92,7.62.09,8.17Z"/>
          <path class="cls-27" d="m859.09,260.92s1.1,4.87,1.81,9.5c8.71-1.57,12.13-10.25,13.36-14.96l-15.17,5.46Z"/>
          <path class="cls-19" d="m856.83,265.75s20.75-2.79,18.82-15.68c-1.93-12.9-.56-21.94-13.89-20.71-13.33,1.23-15.16,6.54-15.56,11-.4,4.46,5.19,25.78,10.63,25.39Z"/>
          <path class="cls-17" d="m846.95,233.29s13.29,11.45,22.32,12.37c9.04.92,12.46-1.98,12.46-1.98,0,0-5.33-4.42-8.53-11.56-.94-2.1-2.94-3.55-5.24-3.75-6.45-.56-18.69-.81-21.01,4.91Z"/>
          <path class="cls-17" d="m855.26,232.26s-4.44,4.3-5.84,7.48c-1.35,3.08-1.76,10.43-.68,13.35,0,0-6.92-13.46-3-20.01,4.16-6.94,9.53-.83,9.53-.83Z"/>
          <path class="cls-14" d="m843.51,309.16c.63,42.01.17,33.23,4.77,37.22,1.11.96,4.22,1.53,8.32,1.8,12.88.86,35.53-1.27,36.39-3.65,2.97-8.24.87-10.8,3.35-23.41.26-1.34.58-2.79.95-4.37,2.07-8.66,4.08-11.61-3.25-25.52-6.65-12.6-13.56-22.84-14.18-22.47-17.54,10.41-18.96,1.66-18.96,1.66,0,0-17.69,18.25-17.38,38.74Z"/>
          <path class="cls-22" d="m798.55,417.48l13.49,36.3s3.66.35,7.17-.65c3.23-.93,6.93-3.37,6.93-3.37,0,0-3.74-38.97-10.73-61.34l-16.85,29.07Z"/>
          <path class="cls-14" d="m860.9,270.42s-18.05,3.06-20.17,10.83c-2.12,7.77-14.6,53.47-14.6,53.47,0,0,9.18,1.65,13.42-2.59,4.24-4.24,14.75-39.33,14.75-39.33l6.6-22.37Z"/>
          <path class="cls-8" d="m856.6,348.18c12.88.86,35.53-1.27,36.39-3.65,2.97-8.24.87-10.8,3.35-23.41l-6.21-17.5s1.03,19.48-4.72,24.61c-5.74,5.12-23.52,9.89-26.32,14.17-1.35,2.05-2.23,4.12-2.49,5.77Z"/>
          <path class="cls-19" d="m871.36,339.98s-12.71-2.83-14.76-1.7c-2.05,1.13-7.06,5.24-7.69,6.66-.63,1.43,4.57-1.09,6.25-1.54,1.09-.29,3.97.71,5.4,1.18,6,2,9.67.97,9.67.97l1.12-5.58Z"/>
          <path class="cls-14" d="m879.87,268.75s17.06,1.05,22.97,9.29c8.32,11.6,24.81,61.03,15.36,67.62-10.65,7.42-48.46,1.94-48.46,1.94,0,0-1.26-5.88.49-8.73,1.75-2.84,30.2-7.44,31.51-8.75s-16.41-25.6-16.41-29.54-5.47-31.83-5.47-31.83Z"/>
          <path class="cls-19" d="m855.98,341.82s-2.66,3.43-3.54,3.84c-.87.41-1.44.31-1.44.31l1.79-3.23,3.18-.92Z"/>
          <path class="cls-19" d="m856.6,338.28l-7.74,3.76s.33.54,1.28.5c.95-.04,3.36-.92,3.36-.92l3.1-3.33Z"/>
        </g>
        <g>
          <g>
            <polygon class="cls-23" points="852.45 350.93 791.21 350.93 772.78 305.11 833.93 305.11 852.45 350.93"/>
            <polygon class="cls-30" points="790.49 349.14 871.36 349.14 871.36 350.93 791.21 350.93 790.49 349.14"/>
          </g>
          <path class="cls-14" d="m806.67,328.02c-.46-1.61.47-2.92,2.08-2.92s3.29,1.31,3.75,2.92c.46,1.61-.47,2.92-2.08,2.92s-3.29-1.31-3.75-2.92Z"/>
        </g>
      </g>
      <g>
        <path class="cls-4" d="m295.93,368.92l-1.3.9c-1.39.97-3.31.62-4.28-.77l-7.59-10.94c-.96-1.39-.62-3.31.77-4.28l1.87-1.29c.27-.19.65-.12.84.15.19.27.12.65-.15.84l-1.87,1.29c-.85.59-1.06,1.75-.47,2.6l7.59,10.94c.59.85,1.75,1.06,2.6.47l1.3-.9c.85-.59,1.06-1.75.47-2.6l-5.04-7.26c-.19-.27-.12-.65.15-.84.27-.19.65-.12.84.15l5.04,7.26c.97,1.39.62,3.31-.78,4.28Z"/>
        <path class="cls-4" d="m304.25,379.71l-2.34,1.62c-2.17,1.5-5.25.84-6.86-1.49l-11.4-16.45c-.19-.27-.12-.65.15-.84.27-.19.65-.12.84.15l11.4,16.45c1.23,1.78,3.56,2.31,5.19,1.19l2.34-1.62c1.63-1.13,1.94-3.49.71-5.27l-12.99-18.74c-1.23-1.78-3.56-2.31-5.19-1.19-.27.19-.65.12-.84-.15-.19-.27-.12-.65.15-.84,2.17-1.5,5.25-.84,6.86,1.49l12.99,18.74c1.61,2.33,1.16,5.44-1.01,6.95Z"/>
      </g>
      <g>
        <path class="cls-4" d="m319.93,465.64l.28,2.32c.3,2.47-1.47,4.73-3.94,5.03l-19.45,2.36c-2.47.3-4.73-1.47-5.03-3.94l-.4-3.32c-.06-.48.29-.93.77-.98.48-.06.93.29.98.77l.4,3.32c.18,1.51,1.56,2.58,3.06,2.4l19.45-2.36c1.51-.18,2.58-1.56,2.4-3.06l-.28-2.32c-.18-1.51-1.56-2.58-3.06-2.4l-12.91,1.57c-.48.06-.93-.29-.98-.77-.06-.48.29-.93.77-.98l12.91-1.57c2.47-.3,4.73,1.47,5.03,3.94Z"/>
        <path class="cls-4" d="m339.68,462.23l.5,4.15c.47,3.86-2.51,7.4-6.65,7.91l-29.24,3.55c-.48.06-.93-.29-.98-.77-.06-.48.29-.93.77-.98l29.24-3.55c3.16-.38,5.45-3.05,5.1-5.94l-.5-4.15c-.35-2.89-3.21-4.93-6.38-4.54l-33.3,4.04c-3.16.38-5.45,3.05-5.1,5.94.06.48-.29.93-.77.98-.48.06-.93-.29-.98-.77-.47-3.86,2.51-7.4,6.65-7.91l33.3-4.04c4.13-.5,7.88,2.23,8.34,6.09Z"/>
      </g>
      <circle class="cls-23" cx="654" cy="190.46" r="2.7" transform="translate(318.38 783.2) rotate(-76.72)"/>
      <rect class="cls-1" x="231.13" y="503.35" width="787.87" height="2.09" rx="1.04" ry="1.04"/>
    </g>
    <g>
      <text class="cls-31" transform="translate(1236.87 465.51)"><tspan x="0" y="0">E muito mais!</tspan></text>
      <text class="cls-31" transform="translate(1242.16 176.63)"><tspan x="0" y="0">Intercambios</tspan></text>
      <text class="cls-31" transform="translate(1352.65 248.85)"><tspan x="0" y="0">Bolsas</tspan></text>
      <text class="cls-31" transform="translate(1327.77 321.07)"><tspan x="0" y="0">Prêmios</tspan></text>
      <text class="cls-31" transform="translate(1277.69 393.29)"><tspan x="0" y="0">Promoções</tspan></text>
    </g>
  </g>
</svg>